<?xml version="1.0" encoding="utf-8"?>
<!-- Generator: Adobe Illustrator 24.2.0, SVG Export Plug-In . SVG Version: 6.00 Build 0)  -->
<svg version="1.1" id="Слой_1" xmlns="http://www.w3.org/2000/svg" xmlns:xlink="http://www.w3.org/1999/xlink" x="0px" y="0px"
	 viewBox="0 0 40 40" style="enable-background:new 0 0 40 40;" xml:space="preserve">
<style type="text/css">
	.st0{fill:#E39128;}
	.st1{fill:#F7F7F7;}
</style>
<path class="st0" d="M0,20C0,9,9,0,20,0s20,9,20,20s-9,20-20,20S0,31,0,20z"/>
<path class="st1" d="M20,7.7c4,0,4.5,0,6.1,0.1c1.5,0.1,2.3,0.3,2.8,0.5c0.7,0.3,1.2,0.6,1.7,1.1c0.5,0.5,0.9,1,1.1,1.7
	c0.2,0.5,0.5,1.3,0.5,2.8c0.1,1.6,0.1,2.1,0.1,6.1s0,4.5-0.1,6.1c-0.1,1.5-0.3,2.3-0.5,2.8c-0.3,0.7-0.6,1.2-1.1,1.7
	c-0.5,0.5-1,0.8-1.7,1.1c-0.5,0.2-1.3,0.5-2.8,0.5c-1.6,0.1-2.1,0.1-6.1,0.1s-4.5,0-6.1-0.1c-1.5-0.1-2.3-0.3-2.8-0.5
	c-0.7-0.3-1.2-0.6-1.7-1.1c-0.5-0.5-0.9-1-1.1-1.7c-0.2-0.5-0.5-1.3-0.5-2.8C7.7,24.5,7.7,24,7.7,20c0-4,0-4.5,0.1-6.1
	c0.1-1.5,0.3-2.3,0.5-2.8c0.3-0.7,0.6-1.2,1.1-1.7c0.5-0.5,1-0.8,1.7-1.1c0.5-0.2,1.3-0.5,2.8-0.5C15.5,7.7,16,7.7,20,7.7z M20,5
	c-4.1,0-4.6,0-6.2,0.1c-1.6,0.1-2.7,0.3-3.6,0.7c-1,0.4-1.8,0.9-2.7,1.7c-0.8,0.8-1.3,1.7-1.7,2.7c-0.4,1-0.6,2-0.7,3.6
	C5,15.4,5,15.9,5,20c0,4.1,0,4.6,0.1,6.2c0.1,1.6,0.3,2.7,0.7,3.6c0.4,1,0.9,1.8,1.7,2.7c0.8,0.8,1.7,1.3,2.7,1.7
	c1,0.4,2,0.6,3.6,0.7C15.4,35,15.9,35,20,35c4.1,0,4.6,0,6.2-0.1c1.6-0.1,2.7-0.3,3.6-0.7c1-0.4,1.8-0.9,2.7-1.7
	c0.8-0.8,1.3-1.7,1.7-2.7c0.4-1,0.6-2,0.7-3.6C35,24.6,35,24.1,35,20s0-4.6-0.1-6.2c-0.1-1.6-0.3-2.7-0.7-3.6
	c-0.4-1-0.9-1.8-1.7-2.7c-0.8-0.8-1.7-1.3-2.7-1.7c-1-0.4-2-0.6-3.6-0.7C24.6,5,24.1,5,20,5L20,5z"/>
<path class="st1" d="M20,12.3c-4.3,0-7.7,3.5-7.7,7.7c0,4.3,3.5,7.7,7.7,7.7s7.7-3.5,7.7-7.7C27.7,15.7,24.3,12.3,20,12.3z M20,25
	c-2.8,0-5-2.2-5-5s2.2-5,5-5s5,2.2,5,5S22.8,25,20,25z"/>
<path class="st1" d="M29.8,12c0,1-0.8,1.8-1.8,1.8S26.2,13,26.2,12s0.8-1.8,1.8-1.8S29.8,11,29.8,12z"/>
</svg>
