<?xml version="1.0" encoding="utf-8"?>
<!-- Generator: Adobe Illustrator 24.2.0, SVG Export Plug-In . SVG Version: 6.00 Build 0)  -->
<svg version="1.1" id="Слой_1" xmlns="http://www.w3.org/2000/svg" xmlns:xlink="http://www.w3.org/1999/xlink" x="0px" y="0px"
	 viewBox="0 0 40 40" style="enable-background:new 0 0 40 40;" xml:space="preserve">
<style type="text/css">
	.st0{fill:#E39128;}
	.st1{fill:#F7F7F7;}
</style>
<path class="st0" d="M0,20C0,9,9,0,20,0s20,9,20,20s-9,20-20,20S0,31,0,20z"/>
<path class="st1" d="M28.4,8.8L5.8,17.9c-0.9,0.4-1.2,1.3-0.2,1.7l5.8,1.9l14-9.1c0.8-0.6,1.5-0.4,0.9,0.2l-12,11.5l-0.4,4.9
	c0.4,0.8,1,0.8,1.4,0.4l3.3-3.3l5.7,4.5c1.3,0.8,2,0.3,2.3-1.2l3.7-18.7C30.8,8.9,30.1,8,28.4,8.8z"/>
</svg>
